<svg xmlns="http://www.w3.org/2000/svg" xmlns:xlink="http://www.w3.org/1999/xlink" width="1587" zoomAndPan="magnify" viewBox="0 0 1190.25 1683.749949" height="2245" preserveAspectRatio="xMidYMid meet" version="1.0"><defs><clipPath id="id1"><path d="M 0 0.40625 L 119.34375 0.40625 L 119.34375 104.210938 L 0 104.210938 Z M 0 0.40625 " clip-rule="nonzero"/></clipPath></defs><g clip-path="url(#id1)"><path fill="#ff0000" d="M 119.34375 -46.441406 C 119.34375 -43.976562 119.285156 -41.511719 119.164062 -39.050781 C 119.042969 -36.589844 118.859375 -34.128906 118.617188 -31.675781 C 118.375 -29.222656 118.074219 -26.777344 117.714844 -24.335938 C 117.351562 -21.898438 116.929688 -19.46875 116.449219 -17.050781 C 115.96875 -14.632812 115.429688 -12.230469 114.828125 -9.835938 C 114.230469 -7.445312 113.574219 -5.070312 112.855469 -2.710938 C 112.140625 -0.351562 111.367188 1.988281 110.539062 4.3125 C 109.707031 6.632812 108.820312 8.933594 107.875 11.210938 C 106.933594 13.488281 105.933594 15.742188 104.878906 17.96875 C 103.824219 20.199219 102.71875 22.402344 101.554688 24.574219 C 100.390625 26.75 99.175781 28.894531 97.910156 31.007812 C 96.640625 33.125 95.324219 35.207031 93.953125 37.257812 C 92.585938 39.304688 91.164062 41.320312 89.695312 43.300781 C 88.226562 45.28125 86.710938 47.226562 85.148438 49.132812 C 83.582031 51.039062 81.972656 52.902344 80.316406 54.730469 C 78.660156 56.558594 76.960938 58.34375 75.21875 60.085938 C 73.476562 61.828125 71.691406 63.527344 69.863281 65.183594 C 68.035156 66.839844 66.167969 68.449219 64.261719 70.015625 C 62.359375 71.578125 60.414062 73.09375 58.433594 74.5625 C 56.453125 76.03125 54.4375 77.453125 52.386719 78.820312 C 50.339844 80.191406 48.257812 81.511719 46.140625 82.777344 C 44.027344 84.046875 41.882812 85.261719 39.707031 86.421875 C 37.53125 87.585938 35.332031 88.691406 33.101562 89.746094 C 30.875 90.800781 28.621094 91.800781 26.34375 92.742188 C 24.0625 93.6875 21.765625 94.574219 19.441406 95.40625 C 17.121094 96.234375 14.78125 97.007812 12.421875 97.726562 C 10.0625 98.441406 7.6875 99.097656 5.296875 99.695312 C 2.902344 100.296875 0.5 100.835938 -1.917969 101.316406 C -4.339844 101.796875 -6.765625 102.21875 -9.207031 102.582031 C -11.644531 102.941406 -14.089844 103.246094 -16.542969 103.488281 C -18.996094 103.726562 -21.457031 103.910156 -23.917969 104.03125 C -26.382812 104.152344 -28.84375 104.210938 -31.3125 104.210938 C -33.777344 104.210938 -36.242188 104.152344 -38.703125 104.03125 C -41.164062 103.910156 -43.625 103.726562 -46.078125 103.488281 C -48.53125 103.246094 -50.976562 102.941406 -53.417969 102.582031 C -55.855469 102.21875 -58.285156 101.796875 -60.703125 101.316406 C -63.121094 100.835938 -65.527344 100.296875 -67.917969 99.695312 C -70.308594 99.097656 -72.683594 98.441406 -75.042969 97.726562 C -77.402344 97.007812 -79.742188 96.234375 -82.066406 95.40625 C -84.386719 94.574219 -86.6875 93.6875 -88.964844 92.742188 C -91.242188 91.800781 -93.496094 90.800781 -95.722656 89.746094 C -97.953125 88.691406 -100.15625 87.585938 -102.328125 86.421875 C -104.503906 85.261719 -106.648438 84.046875 -108.761719 82.777344 C -110.878906 81.511719 -112.960938 80.191406 -115.011719 78.820312 C -117.0625 77.453125 -119.074219 76.03125 -121.054688 74.5625 C -123.035156 73.09375 -124.980469 71.578125 -126.886719 70.015625 C -128.792969 68.449219 -130.65625 66.839844 -132.484375 65.183594 C -134.3125 63.527344 -136.097656 61.828125 -137.839844 60.085938 C -139.582031 58.34375 -141.285156 56.558594 -142.9375 54.730469 C -144.59375 52.902344 -146.203125 51.039062 -147.769531 49.132812 C -149.332031 47.226562 -150.847656 45.28125 -152.316406 43.300781 C -153.785156 41.320312 -155.207031 39.304688 -156.574219 37.257812 C -157.945312 35.207031 -159.265625 33.125 -160.53125 31.007812 C -161.800781 28.894531 -163.015625 26.75 -164.175781 24.574219 C -165.339844 22.402344 -166.449219 20.199219 -167.5 17.96875 C -168.554688 15.742188 -169.554688 13.488281 -170.5 11.210938 C -171.441406 8.933594 -172.328125 6.632812 -173.160156 4.3125 C -173.988281 1.988281 -174.761719 -0.351562 -175.480469 -2.710938 C -176.195312 -5.070312 -176.851562 -7.445312 -177.449219 -9.835938 C -178.050781 -12.230469 -178.589844 -14.632812 -179.070312 -17.050781 C -179.550781 -19.46875 -179.972656 -21.898438 -180.335938 -24.335938 C -180.699219 -26.777344 -181 -29.222656 -181.242188 -31.675781 C -181.480469 -34.128906 -181.664062 -36.589844 -181.785156 -39.050781 C -181.90625 -41.511719 -181.964844 -43.976562 -181.964844 -46.441406 C -181.964844 -48.910156 -181.90625 -51.371094 -181.785156 -53.835938 C -181.664062 -56.296875 -181.480469 -58.757812 -181.242188 -61.210938 C -181 -63.664062 -180.699219 -66.109375 -180.335938 -68.550781 C -179.972656 -70.988281 -179.550781 -73.417969 -179.070312 -75.835938 C -178.589844 -78.253906 -178.050781 -80.65625 -177.449219 -83.050781 C -176.851562 -85.441406 -176.195312 -87.816406 -175.480469 -90.175781 C -174.761719 -92.535156 -173.988281 -94.875 -173.160156 -97.199219 C -172.328125 -99.519531 -171.441406 -101.820312 -170.5 -104.097656 C -169.554688 -106.375 -168.554688 -108.628906 -167.5 -110.855469 C -166.449219 -113.085938 -165.339844 -115.285156 -164.175781 -117.460938 C -163.015625 -119.636719 -161.800781 -121.78125 -160.53125 -123.894531 C -159.265625 -126.011719 -157.945312 -128.09375 -156.574219 -130.144531 C -155.207031 -132.191406 -153.785156 -134.207031 -152.316406 -136.1875 C -150.847656 -138.167969 -149.332031 -140.113281 -147.769531 -142.019531 C -146.203125 -143.921875 -144.59375 -145.789062 -142.9375 -147.617188 C -141.285156 -149.445312 -139.582031 -151.230469 -137.839844 -152.972656 C -136.097656 -154.714844 -134.3125 -156.414062 -132.484375 -158.070312 C -130.65625 -159.726562 -128.792969 -161.335938 -126.886719 -162.902344 C -124.980469 -164.464844 -123.035156 -165.980469 -121.054688 -167.449219 C -119.074219 -168.917969 -117.0625 -170.339844 -115.011719 -171.707031 C -112.960938 -173.078125 -110.878906 -174.398438 -108.761719 -175.664062 C -106.648438 -176.933594 -104.503906 -178.148438 -102.328125 -179.308594 C -100.15625 -180.472656 -97.953125 -181.578125 -95.722656 -182.632812 C -93.496094 -183.6875 -91.242188 -184.6875 -88.964844 -185.628906 C -86.6875 -186.574219 -84.386719 -187.460938 -82.066406 -188.292969 C -79.742188 -189.121094 -77.402344 -189.894531 -75.042969 -190.609375 C -72.683594 -191.328125 -70.308594 -191.984375 -67.917969 -192.582031 C -65.527344 -193.183594 -63.121094 -193.722656 -60.703125 -194.203125 C -58.285156 -194.683594 -55.855469 -195.105469 -53.417969 -195.46875 C -50.976562 -195.828125 -48.53125 -196.132812 -46.078125 -196.371094 C -43.625 -196.613281 -41.164062 -196.796875 -38.703125 -196.917969 C -36.242188 -197.039062 -33.777344 -197.097656 -31.3125 -197.097656 C -28.84375 -197.097656 -26.382812 -197.039062 -23.917969 -196.917969 C -21.457031 -196.796875 -18.996094 -196.613281 -16.542969 -196.371094 C -14.089844 -196.132812 -11.644531 -195.828125 -9.207031 -195.46875 C -6.765625 -195.105469 -4.339844 -194.683594 -1.917969 -194.203125 C 0.5 -193.722656 2.902344 -193.183594 5.296875 -192.582031 C 7.6875 -191.984375 10.0625 -191.328125 12.421875 -190.609375 C 14.78125 -189.894531 17.121094 -189.121094 19.441406 -188.292969 C 21.765625 -187.460938 24.0625 -186.574219 26.34375 -185.628906 C 28.621094 -184.6875 30.875 -183.6875 33.101562 -182.632812 C 35.332031 -181.578125 37.53125 -180.472656 39.707031 -179.308594 C 41.882812 -178.148438 44.027344 -176.933594 46.140625 -175.664062 C 48.257812 -174.398438 50.339844 -173.078125 52.386719 -171.707031 C 54.4375 -170.339844 56.453125 -168.917969 58.433594 -167.449219 C 60.414062 -165.980469 62.359375 -164.464844 64.261719 -162.902344 C 66.167969 -161.335938 68.035156 -159.726562 69.863281 -158.070312 C 71.691406 -156.414062 73.476562 -154.714844 75.21875 -152.972656 C 76.960938 -151.230469 78.660156 -149.445312 80.316406 -147.617188 C 81.972656 -145.789062 83.582031 -143.921875 85.148438 -142.019531 C 86.710938 -140.113281 88.226562 -138.167969 89.695312 -136.1875 C 91.164062 -134.207031 92.585938 -132.191406 93.953125 -130.144531 C 95.324219 -128.09375 96.640625 -126.011719 97.910156 -123.894531 C 99.175781 -121.78125 100.390625 -119.636719 101.554688 -117.460938 C 102.71875 -115.285156 103.824219 -113.085938 104.878906 -110.855469 C 105.933594 -108.628906 106.933594 -106.375 107.875 -104.097656 C 108.820312 -101.820312 109.707031 -99.519531 110.539062 -97.199219 C 111.367188 -94.875 112.140625 -92.535156 112.855469 -90.175781 C 113.574219 -87.816406 114.230469 -85.441406 114.828125 -83.050781 C 115.429688 -80.65625 115.96875 -78.253906 116.449219 -75.835938 C 116.929688 -73.417969 117.351562 -70.988281 117.714844 -68.550781 C 118.074219 -66.109375 118.375 -63.664062 118.617188 -61.210938 C 118.859375 -58.757812 119.042969 -56.296875 119.164062 -53.835938 C 119.285156 -51.371094 119.34375 -48.910156 119.34375 -46.441406 Z M 119.34375 -46.441406 " fill-opacity="1" fill-rule="nonzero"/></g></svg>